<svg xmlns="http://www.w3.org/2000/svg" width="15" height="15" viewBox="0 0 15 15">
    <path fill="#E64B89" fill-rule="evenodd" d="M14.398 5.81a7.236 7.236 0 0 0-1.982-3.68A7.274 7.274 0 0 0 4.442.573 7.238 7.238 0 0 0 2.13 2.13 7.316 7.316 0 0 0 .572 4.442 7.253 7.253 0 0 0 0 7.272a7.238 7.238 0 0 0 2.13 5.144 7.267 7.267 0 0 0 10.286 0 7.262 7.262 0 0 0 1.982-6.607zm-.916 1.401c-.09-.02-2.192-.472-4.326-.203a19.085 19.085 0 0 0-.547-1.222c2.453-1.001 3.45-2.441 3.46-2.458a6.183 6.183 0 0 1 1.413 3.883zm-2.107-4.6c-.015.025-.9 1.371-3.244 2.25a31.482 31.482 0 0 0-2.322-3.624 6.188 6.188 0 0 1 5.566 1.374zm-5.59-1.369v.001l-.02.004c.007-.001.014-.002.02-.005zm-1.162.413c.082.111 1.231 1.669 2.306 3.58-2.982.792-5.57.76-5.734.758a6.22 6.22 0 0 1 3.428-4.338zM1.062 7.273c0-.066.003-.131.005-.196.11.002 3.179.071 6.377-.885.178.348.348.702.503 1.055a5.932 5.932 0 0 0-.244.075C4.35 8.405 2.65 11.42 2.65 11.42l.002.003a6.19 6.19 0 0 1-1.591-4.151zm6.211 6.212a6.185 6.185 0 0 1-3.956-1.424c.081.066.139.109.139.109s1.19-2.597 4.874-3.88c.014-.005.027-.01.041-.013a25.816 25.816 0 0 1 1.327 4.716 6.186 6.186 0 0 1-2.425.492zm3.47-1.06c-.062-.375-.393-2.198-1.208-4.437 2.005-.32 3.742.23 3.87.271a6.215 6.215 0 0 1-2.661 4.166z" opacity=".7"/>
</svg>
